<?xml version="1.0" encoding="iso-8859-1"?>
<!-- Generator: Adobe Illustrator 16.0.0, SVG Export Plug-In . SVG Version: 6.00 Build 0)  -->
<!DOCTYPE svg PUBLIC "-//W3C//DTD SVG 1.1//EN" "http://www.w3.org/Graphics/SVG/1.1/DTD/svg11.dtd">
<svg version="1.1" id="Capa_1" xmlns="http://www.w3.org/2000/svg" xmlns:xlink="http://www.w3.org/1999/xlink" x="0px" y="0px"
	 width="473.113px" height="473.113px" viewBox="0 0 473.113 473.113" style="enable-background:new 0 0 473.113 473.113;"
	 xml:space="preserve">
<g>
	<g>
		<path d="M244.533,69.033c-93.755,0-170.029,76.274-170.029,170.029c0,93.754,76.274,170.029,170.029,170.029
			c93.755,0,170.028-76.275,170.028-170.029C414.562,145.307,338.288,69.033,244.533,69.033z M244.533,397.092
			c-87.138,0-158.029-70.893-158.029-158.029c0-87.137,70.892-158.029,158.029-158.029c87.137,0,158.028,70.892,158.028,158.029
			C402.562,326.199,331.671,397.092,244.533,397.092z"/>
		<path d="M244.533,133.219c-58.362,0-105.844,47.479-105.844,105.843c0,58.362,47.481,105.844,105.844,105.844
			c58.362,0,105.845-47.481,105.845-105.844C350.378,180.699,302.896,133.219,244.533,133.219z M244.533,332.906
			c-51.747,0-93.844-42.098-93.844-93.844c0-51.746,42.098-93.843,93.844-93.843c51.746,0,93.845,42.098,93.845,93.843
			C338.378,290.809,296.279,332.906,244.533,332.906z"/>
		<path d="M58.883,64.852c-5.43,0-9.848,4.418-9.848,9.848v39.967c0,5.259-1.716,6.918-1.963,7.022
			c-0.617-0.146-2.41-2.305-2.41-7.615V74.7c0-5.43-4.418-9.848-9.848-9.848c-5.433,0-9.853,4.418-9.853,9.848v39.226
			c0,5.427-1.729,7.365-2.249,7.673c-0.646-0.381-2.12-2.637-2.12-7.673V74.7c0-5.43-4.419-9.848-9.851-9.848
			C5.22,64.852,0,69.86,0,75.156v74.428c0,12.399,6.738,23.917,17.389,30.101V395.85c0,9.609,7.815,17.428,17.422,17.428
			c9.604,0,17.419-7.82,17.419-17.43V179.685c10.653-6.183,17.393-17.7,17.393-30.102V74.7
			C69.623,68.896,63.963,64.852,58.883,64.852z M60.623,149.583c0,9.91-5.815,19.063-14.815,23.318l-2.577,1.219v221.726
			c0,4.648-3.776,8.43-8.419,8.43c-4.644,0-8.422-3.779-8.422-8.426V174.121l-2.576-1.218c-8.998-4.257-14.813-13.41-14.813-23.319
			L8.997,75.215c0.109-0.522,1.187-1.363,1.745-1.363c0.469,0,0.851,0.38,0.851,0.848v39.226c0,4.621,0.942,8.604,2.724,11.52
			c2.014,3.293,5.072,5.183,8.393,5.183c5.42,0,11.253-5.227,11.253-16.702V74.7c0-0.468,0.383-0.848,0.853-0.848
			c0.468,0,0.848,0.38,0.848,0.848v39.374c0,4.576,0.992,8.549,2.868,11.486c2.08,3.259,5.182,5.127,8.508,5.126
			c5.297-0.001,10.997-5.015,10.997-16.02V74.7c0-0.468,0.38-0.848,0.848-0.848c0.728,0,1.564,0.598,1.74,0.937v74.794H60.623z"/>
		<path d="M455.694,59.836c-19.529,0-29.023,29.178-29.023,89.199c0,16.604,10.485,72.136,11.601,77.995v168.818
			c0,9.609,7.815,17.428,17.423,17.428c9.604,0,17.419-7.82,17.419-17.43V77.259C473.11,67.652,465.298,59.836,455.694,59.836z
			 M464.11,395.846c0,4.648-3.775,8.43-8.419,8.43s-8.422-3.779-8.422-8.426V226.178l-0.08-0.419
			c-0.114-0.603-11.521-60.408-11.521-76.724c0-25.091,1.688-44.755,5.019-58.446c2.414-9.924,6.978-21.753,15.007-21.753
			c4.642,0,8.417,3.778,8.417,8.423L464.11,395.846L464.11,395.846z"/>
	</g>
</g>
<g>
</g>
<g>
</g>
<g>
</g>
<g>
</g>
<g>
</g>
<g>
</g>
<g>
</g>
<g>
</g>
<g>
</g>
<g>
</g>
<g>
</g>
<g>
</g>
<g>
</g>
<g>
</g>
<g>
</g>
</svg>
